<svg xmlns="http://www.w3.org/2000/svg" xmlns:xlink="http://www.w3.org/1999/xlink" contentStyleType="text/css" height="308px" preserveAspectRatio="none" style="width:431px;height:308px;background:#FFFFFF;" version="1.1" viewBox="0 0 431 308" width="431px" zoomAndPan="magnify"><defs/><g><text fill="#000000" font-family="sans-serif" font-size="14" font-weight="bold" lengthAdjust="spacing" textLength="95.1699" x="10" y="23.5352">fully-parallel</text><line style="stroke:#181818;stroke-width:1.5;" x1="40" x2="40" y1="49.7324" y2="49.7324"/><rect fill="#F1F1F1" height="26.4883" rx="5" ry="5" style="stroke:#181818;stroke-width:1.5;" width="68.1533" x="64" y="36.4883"/><text fill="#000000" font-family="sans-serif" font-size="14" lengthAdjust="spacing" textLength="58.1533" x="69" y="55.0234">modules</text><line style="stroke:#181818;stroke-width:1.5;" x1="40" x2="64" y1="49.7324" y2="49.7324"/><line style="stroke:#181818;stroke-width:1.5;" x1="132.1533" x2="217.5879" y1="49.7324" y2="49.7324"/><rect fill="#F1F1F1" height="26.4883" rx="5" ry="5" style="stroke:#181818;stroke-width:1.5;" width="128.5078" x="64" y="72.9766"/><text fill="#000000" font-family="sans-serif" font-size="14" lengthAdjust="spacing" textLength="118.5078" x="69" y="91.5117">snapshot-tests-a</text><path d="M52,74.2207 C52,83.2207 55,86.2207 64,86.2207 " fill="none" style="stroke:#181818;stroke-width:1.5;"/><line style="stroke:#181818;stroke-width:1.5;" x1="192.5078" x2="193.5879" y1="86.2207" y2="86.2207"/><path d="M205.5879,74.2207 C205.5879,83.2207 202.5879,86.2207 193.5879,86.2207 " fill="none" style="stroke:#181818;stroke-width:1.5;"/><rect fill="#F1F1F1" height="26.4883" rx="5" ry="5" style="stroke:#181818;stroke-width:1.5;" width="93.1387" x="64" y="109.4648"/><text fill="#000000" font-family="sans-serif" font-size="14" lengthAdjust="spacing" textLength="83.1387" x="69" y="128">unit-tests-a</text><path d="M52,110.709 C52,119.709 55,122.709 64,122.709 " fill="none" style="stroke:#181818;stroke-width:1.5;"/><line style="stroke:#181818;stroke-width:1.5;" x1="157.1387" x2="193.5879" y1="122.709" y2="122.709"/><path d="M173.3633,122.709 L173.3633,119.709 L179.3633,122.709 L173.3633,125.709 L173.3633,122.709 " fill="#181818" style="stroke:#181818;stroke-width:1.5;"/><path d="M205.5879,110.709 C205.5879,119.709 202.5879,122.709 193.5879,122.709 " fill="none" style="stroke:#181818;stroke-width:1.5;"/><rect fill="#F1F1F1" height="26.4883" rx="5" ry="5" style="stroke:#181818;stroke-width:1.5;" width="79.2139" x="64" y="145.9531"/><text fill="#000000" font-family="sans-serif" font-size="14" lengthAdjust="spacing" textLength="69.2139" x="69" y="164.4883">ui-tests-a</text><path d="M52,147.1973 C52,156.1973 55,159.1973 64,159.1973 " fill="none" style="stroke:#181818;stroke-width:1.5;"/><line style="stroke:#181818;stroke-width:1.5;" x1="143.2139" x2="193.5879" y1="159.1973" y2="159.1973"/><path d="M166.4009,159.1973 L166.4009,156.1973 L172.4009,159.1973 L166.4009,162.1973 L166.4009,159.1973 " fill="#181818" style="stroke:#181818;stroke-width:1.5;"/><path d="M205.5879,147.1973 C205.5879,156.1973 202.5879,159.1973 193.5879,159.1973 " fill="none" style="stroke:#181818;stroke-width:1.5;"/><rect fill="#F1F1F1" height="26.4883" rx="5" ry="5" style="stroke:#181818;stroke-width:1.5;" width="129.5879" x="64" y="182.4414"/><text fill="#000000" font-family="sans-serif" font-size="14" lengthAdjust="spacing" textLength="119.5879" x="69" y="200.9766">snapshot-tests-b</text><path d="M52,183.6855 C52,192.6855 55,195.6855 64,195.6855 " fill="none" style="stroke:#181818;stroke-width:1.5;"/><line style="stroke:#181818;stroke-width:1.5;" x1="193.5879" x2="193.5879" y1="195.6855" y2="195.6855"/><path d="M205.5879,183.6855 C205.5879,192.6855 202.5879,195.6855 193.5879,195.6855 " fill="none" style="stroke:#181818;stroke-width:1.5;"/><rect fill="#F1F1F1" height="26.4883" rx="5" ry="5" style="stroke:#181818;stroke-width:1.5;" width="94.2188" x="64" y="218.9297"/><text fill="#000000" font-family="sans-serif" font-size="14" lengthAdjust="spacing" textLength="84.2188" x="69" y="237.4648">unit-tests-b</text><path d="M52,220.1738 C52,229.1738 55,232.1738 64,232.1738 " fill="none" style="stroke:#181818;stroke-width:1.5;"/><line style="stroke:#181818;stroke-width:1.5;" x1="158.2188" x2="193.5879" y1="232.1738" y2="232.1738"/><path d="M173.9033,232.1738 L173.9033,229.1738 L179.9033,232.1738 L173.9033,235.1738 L173.9033,232.1738 " fill="#181818" style="stroke:#181818;stroke-width:1.5;"/><path d="M205.5879,220.1738 C205.5879,229.1738 202.5879,232.1738 193.5879,232.1738 " fill="none" style="stroke:#181818;stroke-width:1.5;"/><rect fill="#F1F1F1" height="26.4883" rx="5" ry="5" style="stroke:#181818;stroke-width:1.5;" width="80.2939" x="64" y="255.418"/><text fill="#000000" font-family="sans-serif" font-size="14" lengthAdjust="spacing" textLength="70.2939" x="69" y="273.9531">ui-tests-b</text><line style="stroke:#181818;stroke-width:1.5;" x1="144.2939" x2="193.5879" y1="268.6621" y2="268.6621"/><path d="M166.9409,268.6621 L166.9409,265.6621 L172.9409,268.6621 L166.9409,271.6621 L166.9409,268.6621 " fill="#181818" style="stroke:#181818;stroke-width:1.5;"/><path d="M52,256.6621 C52,265.6621 55,268.6621 64,268.6621 " fill="none" style="stroke:#181818;stroke-width:1.5;"/><line style="stroke:#181818;stroke-width:1.5;" x1="52" x2="52" y1="61.7324" y2="256.6621"/><path d="M40,49.7324 C49,49.7324 52,52.7324 52,61.7324 " fill="none" style="stroke:#181818;stroke-width:1.5;"/><path d="M205.5879,256.6621 C205.5879,265.6621 202.5879,268.6621 193.5879,268.6621 " fill="none" style="stroke:#181818;stroke-width:1.5;"/><line style="stroke:#181818;stroke-width:1.5;" x1="205.5879" x2="205.5879" y1="61.7324" y2="256.6621"/><path d="M205.5879,61.7324 C205.5879,52.7324 208.5879,49.7324 217.5879,49.7324 " fill="none" style="stroke:#181818;stroke-width:1.5;"/><line style="stroke:#181818;stroke-width:1.5;" x1="217.5879" x2="237.5879" y1="49.7324" y2="49.7324"/><rect fill="#F1F1F1" height="26.4883" rx="5" ry="5" style="stroke:#181818;stroke-width:1.5;" width="55.876" x="237.5879" y="36.4883"/><text fill="#000000" font-family="sans-serif" font-size="14" lengthAdjust="spacing" textLength="45.876" x="242.5879" y="55.0234">quality</text><line style="stroke:#181818;stroke-width:1.5;" x1="293.4639" x2="313.4639" y1="49.7324" y2="49.7324"/><rect fill="#F1F1F1" height="26.4883" rx="5" ry="5" style="stroke:#181818;stroke-width:1.5;" width="73.3691" x="313.4639" y="36.4883"/><text fill="#000000" font-family="sans-serif" font-size="14" lengthAdjust="spacing" textLength="63.3691" x="318.4639" y="55.0234">reporting</text><ellipse cx="14" cy="49.7324" fill="none" rx="4" ry="4" style="stroke:#181818;stroke-width:2.0;"/><ellipse cx="416.833" cy="49.7324" fill="#181818" rx="4" ry="4" style="stroke:#181818;stroke-width:1.0;"/><line style="stroke:#181818;stroke-width:1.5;" x1="18" x2="40" y1="49.7324" y2="49.7324"/><line style="stroke:#181818;stroke-width:1.5;" x1="386.833" x2="412.833" y1="49.7324" y2="49.7324"/><path d="M397.833,49.7324 L397.833,46.7324 L403.833,49.7324 L397.833,52.7324 L397.833,49.7324 " fill="#181818" style="stroke:#181818;stroke-width:1.5;"/><!--SRC=[ROv1Qy9048Nl-olcc80HOwLAIa6g5ceDBKtqFZ6ZNLXdqzrPGV37TwKKAtHkRzvyRzxK2pgXXdTAxO8nfwn3XyQGWKT8aeDjWo4FPmLnF6FdFwraGbvyXd26mFf6wglu3sbkaUOlqgHf3xu26Ysd7ZZgh1FD-mUbfiJjJyLtWophSWL7SbvRXhm_70n7_N5IeK157Gp6aDyL-QJ8np1RL3LS_5GbvKiDtWQt9MYr5wUR834WLKiy8dm45dsW0juwukNyzNS12pvgP_b0B6gvAQy7zwFiILzUkbW5DgMQqmw3aKXiRHjx5x2kdxE9MY7l0-vZDh6QsPZhJj6hlW40]--></g></svg>